<mxfile host="app.diagrams.net" agent="Mozilla/5.0 (Windows NT 10.0; Win64; x64) AppleWebKit/537.36 (KHTML, like Gecko) Chrome/136.0.0.0 Safari/537.36 Edg/136.0.0.0" version="26.1.0">
  <diagram name="Capture Image via Telnet" id="CSbuWC8jDUD_PHoHxcQx">
    <mxGraphModel dx="1297" dy="738" grid="1" gridSize="10" guides="1" tooltips="1" connect="1" arrows="1" fold="1" page="1" pageScale="1" pageWidth="850" pageHeight="1100" math="0" shadow="0">
      <root>
        <mxCell id="0" />
        <mxCell id="1" parent="0" />
        <mxCell id="5ILu2U37SsWOHSJpcGKf-39" value="Start" style="ellipse;html=1;fillColor=#d5e8d4;strokeColor=#82b366;" vertex="1" parent="1">
          <mxGeometry x="280" y="90" width="120" height="50" as="geometry" />
        </mxCell>
        <mxCell id="5ILu2U37SsWOHSJpcGKf-40" value="Prepare filename &amp;&#xa;directory path" style="rounded=1;whiteSpace=wrap;html=1;fillColor=#dae8fc;strokeColor=#6c8ebf;" vertex="1" parent="1">
          <mxGeometry x="240" y="160" width="200" height="60" as="geometry" />
        </mxCell>
        <mxCell id="5ILu2U37SsWOHSJpcGKf-41" value="Connect via Telnet &amp;amp;&lt;br&gt;trigger image capture&amp;nbsp;&lt;div&gt;SE8&lt;/div&gt;" style="rounded=1;whiteSpace=wrap;html=1;fillColor=#dae8fc;strokeColor=#6c8ebf;" vertex="1" parent="1">
          <mxGeometry x="240" y="240" width="200" height="60" as="geometry" />
        </mxCell>
        <mxCell id="5ILu2U37SsWOHSJpcGKf-42" value="Disconnect Telnet" style="rounded=1;whiteSpace=wrap;html=1;fillColor=#dae8fc;strokeColor=#6c8ebf;" vertex="1" parent="1">
          <mxGeometry x="240" y="320" width="200" height="50" as="geometry" />
        </mxCell>
        <mxCell id="5ILu2U37SsWOHSJpcGKf-43" value="Download image via FTP" style="rounded=1;whiteSpace=wrap;html=1;fillColor=#dae8fc;strokeColor=#6c8ebf;" vertex="1" parent="1">
          <mxGeometry x="240" y="390" width="200" height="60" as="geometry" />
        </mxCell>
        <mxCell id="5ILu2U37SsWOHSJpcGKf-44" value="Save BMP file &amp;&#xa;return path" style="rounded=1;whiteSpace=wrap;html=1;fillColor=#dae8fc;strokeColor=#6c8ebf;" vertex="1" parent="1">
          <mxGeometry x="240" y="470" width="200" height="60" as="geometry" />
        </mxCell>
        <mxCell id="5ILu2U37SsWOHSJpcGKf-45" value="End" style="ellipse;html=1;fillColor=#d5e8d4;strokeColor=#82b366;" vertex="1" parent="1">
          <mxGeometry x="280" y="560" width="120" height="50" as="geometry" />
        </mxCell>
        <mxCell id="5ILu2U37SsWOHSJpcGKf-47" style="endArrow=block;" edge="1" parent="1" source="5ILu2U37SsWOHSJpcGKf-39" target="5ILu2U37SsWOHSJpcGKf-40">
          <mxGeometry relative="1" as="geometry" />
        </mxCell>
        <mxCell id="5ILu2U37SsWOHSJpcGKf-48" style="endArrow=block;" edge="1" parent="1" source="5ILu2U37SsWOHSJpcGKf-40" target="5ILu2U37SsWOHSJpcGKf-41">
          <mxGeometry relative="1" as="geometry" />
        </mxCell>
        <mxCell id="5ILu2U37SsWOHSJpcGKf-49" style="endArrow=block;" edge="1" parent="1" source="5ILu2U37SsWOHSJpcGKf-41" target="5ILu2U37SsWOHSJpcGKf-42">
          <mxGeometry relative="1" as="geometry" />
        </mxCell>
        <mxCell id="5ILu2U37SsWOHSJpcGKf-50" style="endArrow=block;" edge="1" parent="1" source="5ILu2U37SsWOHSJpcGKf-42" target="5ILu2U37SsWOHSJpcGKf-43">
          <mxGeometry relative="1" as="geometry" />
        </mxCell>
        <mxCell id="5ILu2U37SsWOHSJpcGKf-51" style="endArrow=block;" edge="1" parent="1" source="5ILu2U37SsWOHSJpcGKf-43" target="5ILu2U37SsWOHSJpcGKf-44">
          <mxGeometry relative="1" as="geometry" />
        </mxCell>
        <mxCell id="5ILu2U37SsWOHSJpcGKf-52" style="endArrow=block;" edge="1" parent="1" source="5ILu2U37SsWOHSJpcGKf-44" target="5ILu2U37SsWOHSJpcGKf-45">
          <mxGeometry relative="1" as="geometry" />
        </mxCell>
      </root>
    </mxGraphModel>
  </diagram>
</mxfile>
